<svg version="1.1" xmlns="http://www.w3.org/2000/svg" xmlns:xlink="http://www.w3.org/1999/xlink" width="48" height="48"><defs><linearGradient x1="11.67152" y1="15.78101" x2="63.09651" y2="58.98702" gradientUnits="userSpaceOnUse" id="color-1"><stop offset="0" stop-color="#000000" stop-opacity="0.3"></stop><stop offset="1" stop-color="#000000" stop-opacity="0"></stop></linearGradient><filter id="dropshadow-base"><feColorMatrix type="matrix" values="0 0 0 0 0  0 0 0 0 0  0 0 0 0 0  0 0 0 .8 0"></feColorMatrix> <feOffset dx="0" dy="1"></feOffset> <feGaussianBlur stdDeviation="1"></feGaussianBlur> <feComposite in="SourceGraphic"></feComposite></filter><filter id="dropshadow-banner" x="-10%" y="-10%" width="120%" height="130%"><feColorMatrix type="matrix" values="0 0 0 0 0  0 0 0 0 0  0 0 0 0 0  0 0 0 .4 0"></feColorMatrix> <feOffset dx="0" dy="1"></feOffset> <feGaussianBlur stdDeviation="0.5"></feGaussianBlur> <feComposite in="SourceGraphic"></feComposite></filter></defs><g fill="none" fill-rule="nonzero" stroke="none" stroke-width="none" stroke-linecap="butt" stroke-linejoin="miter" stroke-miterlimit="10" stroke-dasharray="" stroke-dashoffset="0" font-family="none" font-weight="none" font-size="none" text-anchor="none" style="mix-blend-mode: normal"><path d="M2,24c0,-12.15026 9.84974,-22 22,-22c12.15026,0 22,9.84974 22,22c0,12.15026 -9.84974,22 -22,22c-12.15026,0 -22,-9.84974 -22,-22z" id="base 1 5" fill="#ffd54f" stroke-width="1"></path><path d="M11.67152,27.52242v-2.34828l2.34828,0l-2.34828,-2.34828v-2.34828h2.34829l-2.34829,-2.34829v-2.34828h14.08969l7.63246,7.63246l1.17361,-1.17467l9.88442,9.88442c-2.57487,6.47715 -8.13767,11.44194 -14.98671,13.19268z" fill="url(#color-1)" stroke-width="1"></path><path d="M25.76121,20.47758h-14.08969v2.34828h14.08969zM25.76121,15.78101h-14.08969v2.34828h14.08969zM11.67152,27.52242h9.39313v-2.34828h-9.39313zM34.56727,22.23879l1.76121,1.76121l-8.21312,8.21899l-5.28951,-5.28363l1.76121,-1.76121l3.52829,3.52242z" fill="none" stroke-width="0"></path><path d="M25.76121,22.82586h-14.08969v-2.34828h14.08969zM25.76121,18.12929h-14.08969v-2.34828h14.08969zM11.67152,25.17414h9.39313v2.34828h-9.39313zM34.56727,22.23879l1.76121,1.76121l-8.21312,8.21899l-5.28951,-5.28363l1.76121,-1.76121l3.52829,3.52242z" fill="#433b3d" stroke-width="0"></path><path d="M2,24c0,-12.15026 9.84974,-22 22,-22c12.15026,0 22,9.84974 22,22c0,12.15026 -9.84974,22 -22,22c-12.15026,0 -22,-9.84974 -22,-22z" id="base 1 1 1" fill="none" stroke-width="1"></path><g fill="#000000" stroke-width="1" font-family="Roboto, sans-serif" font-weight="400" font-size="14" text-anchor="start"></g><rect x="2" y="2" width="44" height="22" fill="none" stroke-width="1"></rect><path d="M2,24v-22h44v22z" fill="none" stroke-width="1"></path><path d="M2,24v-22h44v22z" fill="none" stroke-width="1"></path><path d="M2,24v-22h44v22z" fill="none" stroke-width="1"></path><path d="M2,24v-22h44v22z" fill="none" stroke-width="1"></path></g></svg>